<?xml version="1.0" standalone="no"?><!DOCTYPE svg PUBLIC "-//W3C//DTD SVG 1.1//EN" "http://www.w3.org/Graphics/SVG/1.1/DTD/svg11.dtd"><svg t="1592201227904" class="icon" viewBox="0 0 1024 1024" version="1.1" xmlns="http://www.w3.org/2000/svg" p-id="3853" xmlns:xlink="http://www.w3.org/1999/xlink" width="32" height="32"><defs><style type="text/css"></style></defs><path d="M795.7136 1020.992h-197.76a36.096 36.096 0 0 1-36.672-36.672V668.608H448.0656V984.32c0 20.736-15.936 36.672-36.672 36.672h-194.56c-60.544 0-110.016-49.408-110.016-110.016V588.864H86.0816a85.76 85.76 0 0 1-86.08-86.08c0-22.4 8-43.072 23.936-59.008L395.4576 49.92a160.768 160.768 0 0 1 226.432-6.4c1.6 3.2 3.2 4.8 6.4 6.4l371.52 393.856c33.472 33.472 31.872 87.68-1.6 121.152-15.936 16-38.272 23.936-60.608 23.936H905.7306v322.112c0 60.608-49.408 110.08-110.08 110.08z m-159.552-73.344H795.6506a38.784 38.784 0 0 0 38.272-38.272V552.32c0-20.8 15.936-36.736 36.672-36.736h68.544c4.8 0 9.6-3.2 11.2-8 1.6-4.736 1.6-9.536-3.2-14.336l-373.056-392.32a86.208 86.208 0 0 0-122.816-3.2 3.456 3.456 0 0 0-3.2 3.2l-371.52 392.32a12.544 12.544 0 0 0 0 17.472c3.2 3.2 6.4 3.2 9.6 3.2h58.944c20.736 0 36.672 16 36.672 36.672v358.784c0 20.736 17.536 38.272 38.272 38.272h157.888v-279.04c0-41.472 33.472-73.344 73.344-73.344h113.28c41.408 0 73.28 33.472 73.28 73.344l-1.6 279.04z" p-id="3854"></path></svg>