<?xml version="1.0" standalone="no"?><!DOCTYPE svg PUBLIC "-//W3C//DTD SVG 1.1//EN" "http://www.w3.org/Graphics/SVG/1.1/DTD/svg11.dtd"><svg t="1592319032126" class="icon" viewBox="0 0 1024 1024" version="1.1" xmlns="http://www.w3.org/2000/svg" p-id="2572" xmlns:xlink="http://www.w3.org/1999/xlink" width="32" height="32"><defs><style type="text/css"></style></defs><path d="M869.720049 0H154.232025A93.37193 93.37193 0 0 0 60.967928 93.264096v418.753876a29.953782 29.953782 0 0 0 59.907565 0V93.264096A33.392476 33.392476 0 0 1 154.232025 59.907565H869.720049a33.392476 33.392476 0 0 1 33.356532 33.356531v862.585059c-116.580121-76.873387-352.891499-232.728907-369.785433-244.0754-13.802703-9.381525-29.714152-9.477377-43.732522-0.215667C411.427181 763.485965 215.948798 892.766489 120.875493 955.621506V649.673574a29.953782 29.953782 0 0 0-59.907565 0v323.812368a50.322354 50.322354 0 0 0 78.047575 41.935295c84.074276-55.59422 282.991353-187.127268 372.289569-246.399813 51.412672 34.063441 250.928825 165.644416 373.739332 246.627462a50.322354 50.322354 0 0 0 77.987668-41.995203V93.264096A93.37193 93.37193 0 0 0 869.720049 0z" p-id="2573" fill="#707070"></path><path d="M301.532744 214.361247m34.60261 0l351.729292 0q34.602609 0 34.60261 34.60261l0-0.011982q0 34.602609-34.60261 34.602609l-351.729292 0q-34.602609 0-34.60261-34.602609l0 0.011982q0-34.602609 34.60261-34.60261Z" p-id="2574" fill="#707070"></path><path d="M301.532744 424.900392m34.60261 0l351.657403 0q34.602609 0 34.60261 34.602609l0 0.131797q0 34.602609-34.60261 34.602609l-351.657403 0q-34.602609 0-34.60261-34.602609l0-0.131797q0-34.602609 34.60261-34.602609Z" p-id="2575" fill="#707070"></path></svg>