<?xml version="1.0" standalone="no"?><!DOCTYPE svg PUBLIC "-//W3C//DTD SVG 1.1//EN" "http://www.w3.org/Graphics/SVG/1.1/DTD/svg11.dtd"><svg t="1592579310738" class="icon" viewBox="0 0 1024 1024" version="1.1" xmlns="http://www.w3.org/2000/svg" p-id="4271" xmlns:xlink="http://www.w3.org/1999/xlink" width="32" height="32"><defs><style type="text/css"></style></defs><path d="M869.720049 0H154.232025A93.37193 93.37193 0 0 0 60.967928 93.264096v880.221846a50.322354 50.322354 0 0 0 78.047575 41.935295c84.074276-55.59422 282.991353-187.127268 372.289569-246.399813 51.412672 34.063441 250.928825 165.644416 373.739332 246.627462a50.322354 50.322354 0 0 0 77.987668-41.995203V93.264096A93.37193 93.37193 0 0 0 869.720049 0zM722.34744 459.634798a34.602609 34.602609 0 0 1-34.602609 34.602609H336.123372a34.602609 34.602609 0 0 1-34.590628-34.602609v-0.131797a34.602609 34.602609 0 0 1 34.590628-34.602609h351.669385A34.602609 34.602609 0 0 1 722.34744 459.503001z m0.07189-210.670941a34.602609 34.602609 0 0 1-34.60261 34.602609H336.123372a34.602609 34.602609 0 0 1-34.590628-34.602609 34.602609 34.602609 0 0 1 34.590628-34.60261h351.741274a34.602609 34.602609 0 0 1 34.60261 34.60261z" p-id="4272" fill="#ffac2d"></path></svg>